<svg width="512" height="512" viewBox="0 0 512 512" fill="none" xmlns="http://www.w3.org/2000/svg">
<path d="M373.622 184.216C371.787 184.216 370.027 183.487 368.729 182.19C367.432 180.892 366.703 179.132 366.703 177.297V168.649C366.703 166.814 367.432 165.054 368.729 163.756C370.027 162.459 371.787 161.73 373.622 161.73C375.457 161.73 377.216 162.459 378.514 163.756C379.812 165.054 380.54 166.814 380.54 168.649V177.297C380.54 179.132 379.812 180.892 378.514 182.19C377.216 183.487 375.457 184.216 373.622 184.216Z" fill="black"/>
<path d="M256 287.917C254.165 287.917 252.405 287.188 251.108 285.89C249.81 284.593 249.081 282.833 249.081 280.998V143.768C249.081 142.354 249.515 140.973 250.324 139.813C251.133 138.652 252.279 137.768 253.606 137.278L371.228 93.9866C372.273 93.6009 373.397 93.4736 374.502 93.6155C375.608 93.7574 376.663 94.1643 377.577 94.8016C378.492 95.4389 379.239 96.2877 379.755 97.2757C380.271 98.2638 380.54 99.3619 380.541 100.477V140.973C380.541 142.808 379.812 144.568 378.514 145.865C377.216 147.163 375.457 147.892 373.622 147.892C371.787 147.892 370.027 147.163 368.729 145.865C367.432 144.568 366.703 142.808 366.703 140.973V110.398L262.919 148.598V271.062L366.703 232.863V207.568C366.703 205.733 367.432 203.973 368.729 202.675C370.027 201.378 371.787 200.649 373.622 200.649C375.457 200.649 377.216 201.378 378.514 202.675C379.812 203.973 380.541 205.733 380.541 207.568V237.706C380.54 239.121 380.106 240.501 379.297 241.662C378.488 242.822 377.343 243.707 376.016 244.196L258.394 287.488C257.627 287.769 256.817 287.914 256 287.917Z" fill="black"/>
<path d="M256 287.917C255.183 287.914 254.373 287.769 253.606 287.488L135.984 244.196C134.657 243.707 133.512 242.822 132.703 241.662C131.894 240.501 131.46 239.121 131.459 237.706V100.477C131.46 99.3619 131.729 98.2638 132.245 97.2757C132.761 96.2877 133.508 95.4389 134.423 94.8016C135.337 94.1643 136.392 93.7574 137.498 93.6155C138.603 93.4736 139.727 93.6009 140.772 93.9866L258.394 137.278C259.721 137.768 260.867 138.652 261.676 139.813C262.485 140.973 262.919 142.354 262.919 143.768V280.998C262.919 282.833 262.19 284.593 260.892 285.89C259.595 287.188 257.835 287.917 256 287.917ZM145.297 232.877L249.081 271.076V148.611L145.297 110.398V232.877Z" fill="black"/>
<path d="M373.621 107.402C372.706 107.402 371.801 107.219 370.958 106.863L256 58.963L141.042 106.863C140.199 107.242 139.288 107.449 138.363 107.471C137.439 107.493 136.52 107.329 135.659 106.989C134.799 106.649 134.016 106.141 133.356 105.493C132.696 104.845 132.172 104.072 131.816 103.219C131.46 102.365 131.278 101.449 131.282 100.524C131.286 99.5996 131.476 98.685 131.839 97.8347C132.202 96.9844 132.733 96.2155 133.398 95.5736C134.064 94.9316 134.851 94.4296 135.714 94.0973L253.336 45.0836C255.042 44.3779 256.958 44.3779 258.664 45.0836L376.285 94.0973C377.762 94.7128 378.979 95.8207 379.731 97.2327C380.482 98.6446 380.721 100.273 380.407 101.842C380.093 103.41 379.245 104.821 378.008 105.835C376.771 106.849 375.221 107.403 373.621 107.402ZM373.621 467.449C372.805 467.449 371.995 467.306 371.227 467.027L253.606 423.728C252.274 423.237 251.126 422.349 250.316 421.183C249.507 420.017 249.076 418.63 249.081 417.211V280.998C249.08 279.855 249.363 278.729 249.904 277.721C250.445 276.714 251.227 275.856 252.18 275.225C253.133 274.594 254.229 274.208 255.367 274.104C256.506 273.999 257.653 274.179 258.705 274.626L376.327 324.442C377.577 324.973 378.643 325.861 379.393 326.994C380.142 328.127 380.541 329.456 380.54 330.814V460.53C380.54 462.365 379.811 464.125 378.514 465.423C377.216 466.72 375.456 467.449 373.621 467.449ZM262.919 412.409L366.702 450.608V335.429L262.919 291.446V412.409Z" fill="black"/>
<path d="M373.622 467.449C371.787 467.449 370.027 466.72 368.729 465.423C367.432 464.125 366.703 462.365 366.703 460.53V330.849C366.702 329.49 367.101 328.162 367.85 327.028C368.6 325.895 369.666 325.008 370.916 324.476L488.538 274.66C489.588 274.214 490.731 274.035 491.867 274.138C493.003 274.24 494.096 274.623 495.048 275.25C496.001 275.877 496.784 276.73 497.327 277.733C497.87 278.736 498.157 279.857 498.162 280.998V417.211C498.162 418.625 497.728 420.006 496.919 421.166C496.11 422.327 494.964 423.211 493.637 423.701L376.016 466.999C375.25 467.288 374.44 467.44 373.622 467.449ZM380.54 335.429V450.608L484.324 412.409V291.446L380.54 335.429Z" fill="black"/>
<path d="M491.243 287.917C490.426 287.916 489.615 287.771 488.849 287.488L373.621 245.075L258.394 287.488C256.672 288.123 254.768 288.048 253.101 287.279C251.434 286.51 250.141 285.111 249.506 283.389C248.871 281.666 248.947 279.763 249.715 278.096C250.484 276.429 251.884 275.136 253.606 274.501L371.227 231.21C372.773 230.64 374.47 230.64 376.015 231.21L493.637 274.501C495.164 275.061 496.446 276.14 497.256 277.551C498.067 278.961 498.355 280.612 498.069 282.214C497.783 283.815 496.942 285.264 495.694 286.307C494.446 287.351 492.87 287.92 491.243 287.917Z" fill="black"/>
<path d="M138.378 467.449C136.543 467.449 134.784 466.72 133.486 465.423C132.188 464.125 131.459 462.365 131.459 460.53V330.849C131.459 329.49 131.858 328.162 132.607 327.028C133.356 325.895 134.423 325.008 135.673 324.476L253.295 274.66C254.344 274.214 255.488 274.035 256.624 274.138C257.76 274.24 258.853 274.623 259.805 275.25C260.758 275.877 261.541 276.73 262.084 277.733C262.627 278.736 262.914 279.857 262.919 280.998V417.211C262.919 418.625 262.485 420.006 261.676 421.166C260.867 422.327 259.721 423.211 258.394 423.701L140.772 466.999C140.007 467.288 139.196 467.44 138.378 467.449ZM145.297 335.429V450.608L249.081 412.409V291.446L145.297 335.429Z" fill="black"/>
<path d="M138.378 467.449C137.562 467.449 136.751 467.306 135.984 467.027L18.3624 423.728C17.0307 423.237 15.8823 422.349 15.0729 421.183C14.2634 420.017 13.8321 418.63 13.8375 417.211V280.998C13.8368 279.855 14.1195 278.729 14.6603 277.721C15.2011 276.714 15.9832 275.856 16.9366 275.225C17.8901 274.594 18.9851 274.208 20.1237 274.104C21.2624 273.999 22.4092 274.179 23.4617 274.626L141.083 324.442C142.334 324.973 143.4 325.861 144.149 326.994C144.899 328.127 145.298 329.456 145.297 330.814V460.53C145.297 462.365 144.568 464.125 143.27 465.423C141.973 466.72 140.213 467.449 138.378 467.449ZM27.6753 412.409L131.459 450.608V335.429L27.6753 291.446V412.409Z" fill="black"/>
<path d="M256 287.917C255.183 287.916 254.372 287.771 253.606 287.488L138.378 245.075L23.1505 287.488C21.4284 288.123 19.5245 288.048 17.8578 287.279C16.1911 286.51 14.8981 285.111 14.2632 283.389C13.6283 281.666 13.7035 279.763 14.4723 278.096C15.2411 276.429 16.6405 275.136 18.3626 274.501L135.984 231.21C137.529 230.64 139.227 230.64 140.772 231.21L258.394 274.501C259.921 275.061 261.203 276.14 262.013 277.551C262.824 278.961 263.111 280.612 262.826 282.214C262.54 283.815 261.699 285.264 260.451 286.307C259.202 287.351 257.627 287.92 256 287.917Z" fill="black"/>
</svg>
