<svg width="454" height="396" viewBox="0 0 454 396" fill="none" xmlns="http://www.w3.org/2000/svg">
<path d="M336.612 130.666C334.895 130.666 333.249 129.984 332.035 128.77C330.821 127.557 330.139 125.91 330.139 124.193V116.102C330.139 114.385 330.821 112.738 332.035 111.524C333.249 110.31 334.895 109.628 336.612 109.628C338.329 109.628 339.975 110.31 341.189 111.524C342.403 112.738 343.085 114.385 343.085 116.102V124.193C343.085 125.91 342.403 127.557 341.189 128.77C339.975 129.984 338.329 130.666 336.612 130.666Z" fill="black" fill-opacity="0.5"/>
<path d="M226.567 227.688C224.85 227.688 223.204 227.006 221.99 225.792C220.776 224.578 220.094 222.931 220.094 221.215V92.8236C220.094 91.5001 220.5 90.2085 221.257 89.1228C222.014 88.0371 223.086 87.2096 224.327 86.7517L334.373 46.2483C335.351 45.8875 336.403 45.7684 337.437 45.9012C338.471 46.034 339.458 46.4147 340.314 47.0109C341.169 47.6071 341.868 48.4013 342.351 49.3257C342.834 50.2501 343.086 51.2774 343.086 52.3203V90.2084C343.086 91.9252 342.404 93.5717 341.19 94.7857C339.976 95.9997 338.33 96.6817 336.613 96.6817C334.896 96.6817 333.249 95.9997 332.036 94.7857C330.822 93.5717 330.14 91.9252 330.14 90.2084V61.603L233.04 97.3419V211.919L330.14 176.18V152.514C330.14 150.797 330.822 149.15 332.036 147.936C333.249 146.722 334.896 146.04 336.613 146.04C338.33 146.04 339.976 146.722 341.19 147.936C342.404 149.15 343.086 150.797 343.086 152.514V180.711C343.086 182.035 342.68 183.326 341.923 184.412C341.166 185.498 340.094 186.325 338.853 186.783L228.807 227.287C228.089 227.55 227.331 227.685 226.567 227.688Z" fill="black" fill-opacity="0.5"/>
<path d="M226.567 227.688C225.803 227.685 225.045 227.55 224.327 227.287L114.281 186.783C113.04 186.325 111.968 185.498 111.211 184.412C110.454 183.326 110.048 182.035 110.048 180.711V52.3203C110.048 51.2774 110.3 50.2501 110.783 49.3257C111.266 48.4013 111.964 47.6071 112.82 47.0109C113.676 46.4147 114.663 46.034 115.697 45.9012C116.731 45.7684 117.782 45.8875 118.761 46.2483L228.807 86.7517C230.048 87.2096 231.12 88.0371 231.877 89.1228C232.634 90.2085 233.04 91.5001 233.04 92.8236V221.215C233.04 222.931 232.358 224.578 231.144 225.792C229.93 227.006 228.284 227.688 226.567 227.688ZM122.994 176.193L220.094 211.932V97.3549L122.994 61.603V176.193Z" fill="black" fill-opacity="0.5"/>
<path d="M336.612 58.8001C335.756 58.8001 334.909 58.6284 334.12 58.2952L226.567 13.4806L119.013 58.2952C118.224 58.6504 117.372 58.8439 116.507 58.8642C115.642 58.8845 114.782 58.7312 113.977 58.4134C113.172 58.0955 112.44 57.6196 111.822 57.0137C111.204 56.4078 110.714 55.6843 110.381 54.8859C110.048 54.0874 109.878 53.2303 109.882 52.3651C109.886 51.4999 110.063 50.6442 110.403 49.8487C110.743 49.0531 111.239 48.3338 111.862 47.7332C112.484 47.1326 113.221 46.6629 114.029 46.352L224.074 0.495228C225.67 -0.165076 227.463 -0.165076 229.059 0.495228L339.105 46.352C340.486 46.9278 341.625 47.9644 342.328 49.2854C343.031 50.6064 343.255 52.1302 342.961 53.5976C342.667 55.0649 341.874 56.3852 340.717 57.3337C339.559 58.2822 338.109 58.8004 336.612 58.8001ZM336.612 395.657C335.848 395.656 335.09 395.523 334.373 395.262L224.327 354.752C223.081 354.293 222.006 353.461 221.249 352.37C220.492 351.279 220.088 349.982 220.093 348.654V221.215C220.093 220.145 220.357 219.092 220.863 218.149C221.369 217.206 222.101 216.404 222.993 215.813C223.885 215.223 224.909 214.862 225.975 214.765C227.04 214.667 228.113 214.835 229.098 215.253L339.143 261.86C340.313 262.357 341.311 263.188 342.012 264.248C342.713 265.308 343.086 266.551 343.086 267.822V389.183C343.086 390.9 342.404 392.547 341.19 393.761C339.976 394.975 338.329 395.657 336.612 395.657ZM233.04 344.162L330.139 379.901V272.14L233.04 230.989V344.162Z" fill="black" fill-opacity="0.5"/>
<path d="M336.612 395.657C334.895 395.657 333.249 394.975 332.035 393.761C330.821 392.547 330.139 390.9 330.139 389.183V267.855C330.138 266.584 330.511 265.341 331.212 264.28C331.913 263.22 332.911 262.39 334.081 261.893L444.127 215.285C445.109 214.868 446.179 214.7 447.242 214.796C448.304 214.892 449.327 215.25 450.218 215.837C451.109 216.424 451.841 217.222 452.35 218.16C452.858 219.098 453.126 220.148 453.131 221.215V348.654C453.131 349.978 452.725 351.269 451.968 352.355C451.211 353.441 450.139 354.268 448.897 354.726L338.852 395.236C338.135 395.506 337.377 395.648 336.612 395.657ZM343.085 272.14V379.901L440.184 344.162V230.989L343.085 272.14Z" fill="black" fill-opacity="0.5"/>
<path d="M446.657 227.688C445.893 227.687 445.135 227.552 444.418 227.287L336.612 187.605L228.805 227.287C227.194 227.881 225.413 227.81 223.854 227.091C222.294 226.372 221.085 225.062 220.491 223.451C219.897 221.84 219.967 220.059 220.686 218.499C221.405 216.94 222.715 215.73 224.326 215.136L334.372 174.633C335.817 174.1 337.406 174.1 338.851 174.633L448.897 215.136C450.326 215.66 451.525 216.67 452.283 217.989C453.042 219.309 453.311 220.854 453.043 222.352C452.776 223.85 451.989 225.206 450.821 226.182C449.654 227.158 448.179 227.691 446.657 227.688Z" fill="black" fill-opacity="0.5"/>
<path d="M116.521 395.657C114.804 395.657 113.158 394.975 111.944 393.761C110.73 392.547 110.048 390.9 110.048 389.183V267.855C110.047 266.584 110.42 265.341 111.122 264.28C111.823 263.22 112.82 262.39 113.99 261.893L224.036 215.285C225.018 214.868 226.088 214.7 227.151 214.796C228.213 214.892 229.236 215.25 230.127 215.837C231.018 216.424 231.751 217.222 232.259 218.16C232.767 219.098 233.036 220.148 233.04 221.215V348.654C233.04 349.978 232.634 351.269 231.877 352.355C231.12 353.441 230.048 354.268 228.807 354.726L118.761 395.236C118.045 395.506 117.287 395.648 116.521 395.657ZM122.994 272.14V379.901L220.094 344.162V230.989L122.994 272.14Z" fill="black" fill-opacity="0.5"/>
<path d="M116.52 395.657C115.756 395.656 114.998 395.523 114.28 395.262L4.23455 354.752C2.98864 354.293 1.91417 353.461 1.15686 352.37C0.399544 351.279 -0.00397441 349.982 0.00102241 348.654V221.215C0.000370471 220.145 0.264873 219.092 0.770873 218.149C1.27687 217.206 2.0086 216.404 2.9006 215.813C3.79261 215.223 4.81709 214.862 5.88242 214.765C6.94775 214.667 8.02071 214.835 9.00536 215.253L119.051 261.86C120.221 262.357 121.219 263.188 121.92 264.248C122.621 265.308 122.994 266.551 122.993 267.822V389.183C122.993 390.9 122.311 392.547 121.097 393.761C119.883 394.975 118.237 395.657 116.52 395.657ZM12.9476 344.162L110.047 379.901V272.14L12.9476 230.989V344.162Z" fill="black" fill-opacity="0.5"/>
<path d="M226.566 227.688C225.802 227.687 225.044 227.552 224.327 227.287L116.521 187.605L8.71465 227.287C7.10341 227.881 5.3222 227.81 3.76284 227.091C2.20349 226.372 0.993741 225.062 0.399721 223.451C-0.194299 221.84 -0.123929 220.059 0.595352 218.499C1.31463 216.94 2.6239 215.73 4.23514 215.136L114.281 174.633C115.727 174.1 117.315 174.1 118.76 174.633L228.806 215.136C230.235 215.66 231.434 216.67 232.193 217.989C232.951 219.309 233.22 220.854 232.953 222.352C232.685 223.85 231.899 225.206 230.731 226.182C229.563 227.158 228.088 227.691 226.566 227.688Z" fill="black" fill-opacity="0.5"/>
</svg>
