<svg width="157" height="39" viewBox="0 0 157 39" fill="none" xmlns="http://www.w3.org/2000/svg">
<path d="M46.0557 23.9904L60.3201 6.57528V3.56313H40.3429V7.3716H54.3651L40.1006 24.7867V27.7989H60.7702V23.9904H46.0557Z" fill="white"/>
<path d="M74.3778 9.1506C71.6773 9.1506 69.4268 10.0508 68.0073 11.7473V9.35833H63.8872V27.8468H68.215V18.4987C68.215 14.7941 70.2924 12.9245 73.3738 12.9245C76.1436 12.9245 77.7708 14.5171 77.7708 17.8062V27.8468H82.0986V17.2523C82.0986 11.678 78.8095 9.1506 74.3778 9.1506Z" fill="white"/>
<path d="M99.0958 9.3065V18.6546C99.0958 22.3592 97.053 24.2288 94.0409 24.2288C91.3057 24.2288 89.7131 22.6362 89.7131 19.2778V9.3065H85.3853V19.8664C85.3853 25.4406 88.6051 28.0373 93.3484 28.0373C95.7374 28.0373 97.9186 27.1371 99.3035 25.4406V27.7949H103.424V9.3065H99.0958Z" fill="white"/>
<path d="M117.864 9.1506C115.163 9.1506 112.913 10.0508 111.493 11.7473V9.35833H107.373V27.8468H111.701V18.4987C111.701 14.7941 113.778 12.9245 116.86 12.9245C119.629 12.9245 121.257 14.5171 121.257 17.8062V27.8468H125.584V17.2523C125.584 11.678 122.295 9.1506 117.864 9.1506Z" fill="white"/>
<path d="M142.863 9.3065L137.011 22.9824L131.195 9.3065H126.694L134.761 27.8642L132.96 32.0189C132.13 33.8538 131.229 34.5809 129.706 34.5809C128.529 34.5809 127.352 34.0962 126.521 33.2999L124.79 36.4852C125.967 37.5585 127.906 38.1817 129.741 38.1817C132.822 38.1817 135.176 36.9006 136.873 32.7113L147.017 9.3065H142.863Z" fill="white"/>
<path fill-rule="evenodd" clip-rule="evenodd" d="M0 23.1969L13.8781 15.7443L0 8.29286C2.78912 3.39316 8.23989 0.0692139 14.5092 0.0692139C23.615 0.0692139 30.9964 7.08699 30.9964 15.7443C30.9964 24.4015 23.615 31.4181 14.5092 31.4181C8.23989 31.4181 2.78787 28.0941 0 23.1957V23.1969Z" fill="white"/>
<path fill-rule="evenodd" clip-rule="evenodd" d="M156.794 9.3065V38.1817Z" fill="white"/>
<path d="M156.794 9.3065V38.1817" stroke="white" stroke-width="0.00694028" stroke-miterlimit="1.5"/>
</svg>
