<svg width="157" height="39" viewBox="0 0 157 39" fill="none" xmlns="http://www.w3.org/2000/svg">
<path d="M46.0557 23.9212L60.3201 6.50606V3.4939H40.3429V7.30237H54.3651L40.1006 24.7175V27.7297H60.7702V23.9212H46.0557Z" fill="#171725"/>
<path d="M74.3783 9.08142C71.6778 9.08142 69.4273 9.98161 68.0078 11.6781V9.28916H63.8877V27.7776H68.2155V18.4295C68.2155 14.7249 70.2929 12.8553 73.3743 12.8553C76.1441 12.8553 77.7713 14.4479 77.7713 17.7371V27.7776H82.0991V17.1831C82.0991 11.6089 78.81 9.08142 74.3783 9.08142Z" fill="#171725"/>
<path d="M99.0963 9.2373V18.5854C99.0963 22.29 97.0535 24.1596 94.0414 24.1596C91.3062 24.1596 89.7136 22.567 89.7136 19.2086V9.2373H85.3857V19.7972C85.3857 25.3714 88.6056 27.9681 93.3489 27.9681C95.7379 27.9681 97.9191 27.0679 99.304 25.3714V27.7257H103.424V9.2373H99.0963Z" fill="#171725"/>
<path d="M117.864 9.08142C115.163 9.08142 112.913 9.98161 111.493 11.6781V9.28916H107.373V27.7776H111.701V18.4295C111.701 14.7249 113.778 12.8553 116.86 12.8553C119.629 12.8553 121.257 14.4479 121.257 17.7371V27.7776H125.584V17.1831C125.584 11.6089 122.295 9.08142 117.864 9.08142Z" fill="#171725"/>
<path d="M142.862 9.2373L137.011 22.9132L131.194 9.2373H126.693L134.76 27.795L132.96 31.9497C132.129 33.7847 131.229 34.5117 129.705 34.5117C128.528 34.5117 127.351 34.027 126.52 33.2307L124.789 36.416C125.966 37.4893 127.905 38.1125 129.74 38.1125C132.821 38.1125 135.176 36.8314 136.872 32.6421L147.017 9.2373H142.862Z" fill="#171725"/>
<path fill-rule="evenodd" clip-rule="evenodd" d="M0 23.1277L13.8781 15.675L0 8.22365C2.78912 3.32395 8.23989 0 14.5092 0C23.615 0 30.9964 7.01778 30.9964 15.675C30.9964 24.3323 23.615 31.3488 14.5092 31.3488C8.23989 31.3488 2.78787 28.0249 0 23.1264V23.1277Z" fill="#171725"/>
<path fill-rule="evenodd" clip-rule="evenodd" d="M156.795 9.2373V38.1125Z" fill="#171725"/>
<path d="M156.795 9.2373V38.1125" stroke="#171725" stroke-width="0.00694028" stroke-miterlimit="1.5"/>
</svg>
